<svg width="300" height="300" viewBox="0 0 300 300" fill="none" xmlns="http://www.w3.org/2000/svg">
<rect width="300" height="300" rx="150" fill="white"/>
<path d="M149.896 269.955L80.471 250.683L65 77.1569H235L219.513 250.655L149.896 269.955Z" fill="#264DE4"/>
<path d="M206.254 239.608L219.489 91.3452H150V255.203L206.254 239.608Z" fill="#2965F1"/>
<path d="M100.467 155.703L102.374 176.985H150V155.703H100.467Z" fill="#EBEBEB"/>
<path d="M96.6343 112.628L98.5689 133.91H150V112.628H149.926H96.6343Z" fill="#EBEBEB"/>
<path d="M150 210.976L149.907 211L126.205 204.6L124.689 187.627H113.172H103.325L106.307 221.043L149.902 233.145L150 233.118V210.976Z" fill="#EBEBEB"/>
<path d="M105.008 30H130.785V40.7792H115.788V51.5585H130.785V62.3377H105.008V30Z" fill="#4A4A4A"/>
<path d="M135.94 30H161.717V39.3733H146.719V41.2479H161.717V62.8064H135.94V52.9645H150.937V51.0898H135.94V30Z" fill="#4A4A4A"/>
<path d="M166.872 30H192.648V39.3733H177.651V41.2479H192.648V62.8064H166.872V52.9645H181.869V51.0898H166.872V30Z" fill="#4A4A4A"/>
<path d="M199.397 155.703L203.239 112.628H149.926V133.91H179.915L177.979 155.703H149.926V176.985H176.133L173.663 204.587L149.926 210.993V233.135L193.556 221.043L193.876 217.447L198.877 161.418L199.397 155.703Z" fill="white"/>
</svg>
