<svg width="300" height="300" viewBox="0 0 300 300" fill="none" xmlns="http://www.w3.org/2000/svg">
<rect width="300" height="300" rx="150" fill="white"/>
<path fill-rule="evenodd" clip-rule="evenodd" d="M71.0794 199.895V185.367C71.0794 183.394 72.3349 181.959 74.3079 181.959H74.846C76.819 181.959 78.0746 183.573 78.0746 185.367V215.859C78.0746 223.213 74.4873 229.132 68.0302 232.898C64.981 234.692 61.7524 235.589 58.3444 235.589H56.9095C49.5556 235.589 43.6365 232.002 39.8698 225.544C38.0762 222.495 37.1794 219.267 37.1794 215.859V214.424C37.1794 207.07 40.7667 201.151 47.2238 197.384C50.273 195.59 53.5016 194.694 56.9095 194.694H58.3444C63.1873 194.873 67.4921 196.667 71.0794 199.895V199.895ZM43.9952 215.141C43.9952 220.522 46.6857 224.468 51.3492 227.159C53.3222 228.235 55.2952 228.773 57.4476 228.773C62.6492 228.773 66.5952 226.262 69.2857 221.778C70.5413 219.625 71.0794 217.473 71.0794 214.962C71.0794 210.298 68.927 206.711 65.1603 204.021C62.8286 202.406 60.3175 201.509 57.627 201.509C51.8873 201.509 47.7619 204.379 45.2508 209.581C44.354 211.375 43.9952 213.348 43.9952 215.141V215.141ZM101.751 194.873H102.648C110.54 194.873 116.638 198.64 120.405 205.635C122.019 208.325 122.737 211.375 122.737 214.603V216.038C122.737 223.392 119.149 229.311 112.692 233.078C109.643 234.871 106.414 235.768 103.006 235.768H101.571C94.2175 235.768 88.2984 232.181 84.5317 225.724C82.7381 222.675 81.8413 219.446 81.8413 216.038V214.603C81.8413 207.249 85.6079 201.33 91.8857 197.563C94.9349 195.59 98.3429 194.873 101.751 194.873ZM88.8365 215.141C88.8365 220.343 91.3476 224.109 95.8317 226.8C97.9841 228.056 100.137 228.594 102.648 228.594C107.849 228.594 111.616 225.903 114.306 221.598C115.562 219.446 116.1 217.294 116.1 214.782C116.1 209.94 113.768 206.173 109.822 203.482C107.67 202.048 105.159 201.33 102.648 201.33C96.9079 201.33 92.7825 204.2 90.2714 209.402C89.1952 211.375 88.8365 213.348 88.8365 215.141ZM151.256 202.227C150.179 201.689 148.206 201.509 147.13 201.509C141.39 201.33 137.265 204.559 134.754 209.581C133.857 211.375 133.498 213.168 133.498 215.141C133.498 221.06 136.548 225.186 141.749 227.697C143.722 228.594 146.054 228.773 148.206 228.773C150 228.773 152.69 227.697 154.305 226.8L154.663 226.621H156.098C157.713 226.979 158.789 227.876 158.789 229.67V230.387C158.789 234.513 151.076 235.589 148.206 235.768C137.983 236.486 130.27 230.925 127.4 221.06C126.862 219.446 126.683 217.652 126.683 215.859V214.424C126.683 207.07 130.449 201.151 136.727 197.384C139.776 195.59 143.005 194.694 146.413 194.694H147.848C151.435 194.694 154.843 195.77 157.892 197.743L158.071 197.922L158.251 198.102C158.61 198.64 158.789 199.178 158.789 199.895V200.613C158.789 202.406 157.533 203.303 155.919 203.662H155.381C154.484 203.662 152.152 202.586 151.256 202.227ZM173.497 206.89C176.187 204.2 178.878 201.509 181.568 198.998C182.286 198.281 185.156 195.232 186.232 195.232H187.667C189.281 195.59 190.357 196.487 190.357 198.281V198.998C190.357 200.075 189.102 201.509 188.205 202.227L183.362 207.07L175.111 215.5C178.698 219.087 182.286 222.675 185.694 226.262L188.563 229.311C188.922 229.67 189.46 230.029 189.64 230.567C189.998 231.105 190.178 231.643 190.178 232.181V233.078C189.819 234.692 188.743 235.948 187.129 235.948H186.59C185.514 235.948 184.259 234.692 183.362 233.975C181.748 232.54 180.133 230.925 178.698 229.311L173.497 224.109V232.36C173.497 234.333 172.241 235.768 170.268 235.768H169.73C167.757 235.768 166.502 234.154 166.502 232.36V185.546C166.502 183.573 167.757 182.138 169.73 182.138H170.268C172.241 182.138 173.497 183.573 173.497 185.546V206.89V206.89ZM258.875 195.052H259.592C261.565 195.052 263 196.487 263 198.46C263 201.33 260.31 202.048 257.978 202.048C254.929 202.048 251.879 203.841 249.906 205.994C247.216 208.684 246.14 211.913 246.14 215.679V232.181C246.14 234.154 244.884 235.589 242.911 235.589H242.373C240.4 235.589 239.144 233.975 239.144 232.181V214.603C239.144 207.787 242.373 202.406 247.933 198.46C251.162 196.308 254.929 195.052 258.875 195.052V195.052ZM210.267 227.876C212.778 228.773 215.648 228.594 218.159 228.235C219.414 227.697 222.822 226.262 224.078 226.441H224.437C225.154 226.8 225.871 227.338 226.23 228.055C227.127 229.849 226.768 231.643 224.975 232.719L224.437 233.078C217.979 236.844 210.984 236.306 204.527 232.719C201.478 231.105 199.146 228.594 197.352 225.544L196.994 224.827C192.868 217.652 193.406 209.94 198.07 203.124C199.684 200.792 201.837 198.998 204.348 197.563L205.244 197.025C211.343 193.438 217.979 193.797 224.257 196.846C227.665 198.46 230.356 200.971 232.329 204.2L232.687 204.738C234.122 207.07 232.329 209.222 230.535 210.657C228.383 212.271 226.23 214.244 224.257 216.038C219.414 219.984 214.751 223.93 210.267 227.876ZM204.348 223.751L219.594 210.657C221.387 209.222 223.181 207.608 224.975 205.994C223.54 204.2 221.208 202.944 219.414 202.227C215.468 200.792 211.522 201.151 207.935 203.303C203.271 205.994 201.119 210.478 201.298 215.859C201.298 218.011 202.016 219.984 203.092 221.957C203.451 222.675 203.81 223.213 204.348 223.751" fill="#3A4D54"/>
<path fill-rule="evenodd" clip-rule="evenodd" d="M167.398 86.5365H187.667V107.163H197.89C202.554 107.163 207.397 106.267 211.881 104.832C214.033 104.114 216.544 103.038 218.697 101.783C215.827 98.0159 214.392 93.3524 214.033 88.6889C213.495 82.4111 214.751 74.1603 219.056 69.3175L221.208 66.8063L223.719 68.7794C230.176 73.9809 235.378 80.9762 236.454 89.227C244.167 86.8952 253.135 87.4333 259.951 91.3794L262.641 92.9936L261.206 95.8635C255.467 106.984 243.449 110.571 231.79 109.854C214.213 153.44 176.187 174.067 129.911 174.067C106.056 174.067 84.173 165.098 71.6175 143.933L71.4381 143.575L69.6444 139.808C65.3397 130.481 64.0841 120.257 64.9809 110.033L65.3397 106.984H82.5587V86.5365H102.827V66.2682H143.184V46H167.398V86.5365V86.5365Z" fill="#3A4D54"/>
<path d="M232.867 94.0699C234.302 83.4874 226.41 75.2366 221.387 71.2905C215.827 77.7477 214.93 94.9667 223.719 102.141C218.697 106.446 208.473 110.571 197.711 110.571H68.2095C67.1333 121.692 69.1063 131.916 73.5905 140.705L75.0254 143.395C75.9222 145.01 76.9984 146.444 78.0746 148.059C83.4555 148.418 88.2984 148.597 92.7825 148.418C101.571 148.238 108.746 147.162 114.306 145.368C115.203 145.01 115.921 145.548 116.279 146.265C116.638 147.162 116.1 147.879 115.383 148.238C114.665 148.418 113.948 148.776 113.051 148.956C108.746 150.211 104.083 150.929 98.1635 151.287H97.0873C94.7556 151.467 92.2444 151.467 89.554 151.467C86.6841 151.467 83.9936 151.467 80.7651 151.287C91.527 163.484 108.387 170.659 129.552 170.659C174.394 170.659 212.419 150.749 229.1 106.267C241.117 107.522 252.597 104.473 257.798 94.2493C249.727 89.5858 238.965 91.0207 232.867 94.0699V94.0699Z" fill="#00AADA"/>
<path d="M232.867 94.0699C234.302 83.4874 226.41 75.2366 221.387 71.2905C215.827 77.7477 214.93 94.9667 223.719 102.141C218.697 106.446 208.473 110.571 197.711 110.571H75.7428C75.2048 127.611 81.4825 140.525 92.7825 148.238C101.571 148.059 108.746 146.983 114.306 145.189C115.203 144.83 115.921 145.368 116.279 146.086C116.638 146.983 116.1 147.7 115.383 148.059C114.665 148.238 113.948 148.597 113.051 148.776C108.746 150.032 103.724 150.929 97.8048 151.287L97.6254 151.108C112.871 159 134.933 158.821 160.403 149.135C188.743 138.194 215.289 117.387 233.763 93.7112C233.405 93.8905 233.225 94.0699 232.867 94.0699V94.0699Z" fill="#28B8EB"/>
<path d="M68.3889 124.024C69.1063 129.943 70.9 135.503 73.5905 140.705L75.0254 143.395C75.9222 145.01 76.9984 146.444 78.0746 148.059C83.4556 148.417 88.2984 148.597 92.7825 148.417C101.571 148.238 108.746 147.162 114.306 145.368C115.203 145.01 115.921 145.548 116.279 146.265C116.638 147.162 116.1 147.879 115.383 148.238C114.665 148.417 113.948 148.776 113.051 148.956C108.746 150.211 103.724 151.108 97.8048 151.467H97.0873C94.7555 151.646 92.2444 151.646 89.7333 151.646C86.8635 151.646 83.9936 151.646 80.9444 151.467C91.7063 163.663 108.746 170.838 129.911 170.838C168.295 170.838 201.657 156.31 221.029 124.203H68.3889V124.024Z" fill="#028BB8"/>
<path d="M76.9984 124.024C79.3302 134.427 84.7111 142.678 92.7825 148.238C101.571 148.059 108.746 146.983 114.306 145.189C115.203 144.83 115.921 145.368 116.279 146.086C116.638 146.983 116.1 147.7 115.383 148.059C114.665 148.238 113.948 148.597 113.051 148.776C108.746 150.032 103.724 150.929 97.6254 151.287C112.871 159.179 134.933 159 160.224 149.314C175.47 143.395 190.357 134.606 203.63 124.024H76.9984V124.024Z" fill="#019BC6"/>
<path fill-rule="evenodd" clip-rule="evenodd" d="M85.7873 89.765H103.365V107.343H85.7873V89.765ZM87.2222 91.3793H88.6571V105.908H87.2222V91.3793ZM89.9127 91.3793H91.3476V105.908H89.9127V91.3793ZM92.6032 91.3793H94.0381V105.908H92.6032V91.3793V91.3793ZM95.1143 91.3793H96.5492V105.908H95.1143V91.3793ZM97.8048 91.3793H99.2397V105.908H97.8048V91.3793ZM100.495 91.3793H101.93V105.908H100.495V91.3793ZM106.056 69.6761H123.633V87.0746H106.056V69.6761ZM107.49 71.1111H108.925V85.6396H107.49V71.1111ZM110.181 71.1111H111.616V85.6396H110.181V71.1111ZM112.692 71.1111H114.127V85.6396H112.692V71.1111ZM115.383 71.1111H116.817V85.6396H115.383V71.1111ZM118.073 71.1111H119.508V85.6396H118.073V71.1111ZM120.763 71.1111H122.198V85.6396H120.763V71.1111Z" fill="#00ACD3"/>
<path fill-rule="evenodd" clip-rule="evenodd" d="M106.056 89.7651H123.633V107.343H106.056V89.7651ZM107.49 91.3794H108.925V105.908H107.49V91.3794ZM110.181 91.3794H111.616V105.908H110.181V91.3794ZM112.692 91.3794H114.127V105.908H112.692V91.3794ZM115.383 91.3794H116.817V105.908H115.383V91.3794ZM118.073 91.3794H119.508V105.908H118.073V91.3794ZM120.763 91.3794H122.198V105.908H120.763V91.3794Z" fill="#23C2EE"/>
<path fill-rule="evenodd" clip-rule="evenodd" d="M126.324 89.7651H143.902V107.343H126.324V89.7651ZM127.759 91.3794H129.194V105.908H127.759V91.3794ZM130.27 91.3794H131.705V105.908H130.27V91.3794ZM132.96 91.3794H134.395V105.908H132.96V91.3794ZM135.651 91.3794H137.086V105.908H135.651V91.3794ZM138.341 91.3794H139.776V105.908H138.341V91.3794ZM140.852 91.3794H142.287V105.908H140.852V91.3794Z" fill="#00ACD3"/>
<path fill-rule="evenodd" clip-rule="evenodd" d="M126.324 69.6761H143.902V87.0746H126.324V69.6761ZM127.759 71.1111H129.194V85.6396H127.759V71.1111ZM130.27 71.1111H131.705V85.6396H130.27V71.1111ZM132.96 71.1111H134.395V85.6396H132.96V71.1111ZM135.651 71.1111H137.086V85.6396H135.651V71.1111ZM138.341 71.1111H139.776V85.6396H138.341V71.1111ZM140.852 71.1111H142.287V85.6396H140.852V71.1111ZM146.413 89.765H163.99V107.343H146.413V89.765ZM148.027 91.3793H149.462V105.908H148.027V91.3793ZM150.538 91.3793H151.973V105.908H150.538V91.3793ZM153.229 91.3793H154.663V105.908H153.229V91.3793ZM155.919 91.3793H157.354V105.908H155.919V91.3793ZM158.43 91.3793H159.865V105.908H158.43V91.3793ZM161.121 91.3793H162.556V105.908H161.121V91.3793Z" fill="#23C2EE"/>
<path fill-rule="evenodd" clip-rule="evenodd" d="M146.413 69.6761H163.99V87.0746H146.413V69.6761ZM148.027 71.1111H149.462V85.6396H148.027V71.1111ZM150.538 71.1111H151.973V85.6396H150.538V71.1111ZM153.229 71.1111H154.663V85.6396H153.229V71.1111ZM155.919 71.1111H157.354V85.6396H155.919V71.1111ZM158.43 71.1111H159.865V85.6396H158.43V71.1111ZM161.121 71.1111H162.556V85.6396H161.121V71.1111Z" fill="#00ACD3"/>
<path fill-rule="evenodd" clip-rule="evenodd" d="M146.413 49.408H163.99V66.9857H146.413V49.408ZM148.027 50.8429H149.462V65.5508H148.027V50.8429ZM150.538 50.8429H151.973V65.5508H150.538V50.8429ZM153.229 50.8429H154.663V65.5508H153.229V50.8429ZM155.919 50.8429H157.354V65.5508H155.919V50.8429ZM158.43 50.8429H159.865V65.5508H158.43V50.8429ZM161.121 50.8429H162.556V65.5508H161.121V50.8429Z" fill="#23C2EE"/>
<path fill-rule="evenodd" clip-rule="evenodd" d="M166.681 89.7651H184.259V107.343H166.681V89.7651ZM168.116 91.3794H169.551V105.908H168.116V91.3794ZM170.806 91.3794H172.241V105.908H170.806V91.3794ZM173.497 91.3794H174.932V105.908H173.497V91.3794ZM176.008 91.3794H177.443V105.908H176.008V91.3794ZM178.698 91.3794H180.133V105.908H178.698V91.3794ZM181.389 91.3794H182.824V105.908H181.389V91.3794Z" fill="#00ACD3"/>
<path fill-rule="evenodd" clip-rule="evenodd" d="M122.378 135.862C125.068 135.862 127.221 138.014 127.221 140.705C127.221 143.395 125.068 145.548 122.378 145.548C119.687 145.548 117.535 143.395 117.535 140.705C117.714 138.014 119.867 135.862 122.378 135.862Z" fill="#D4EEF1"/>
<path fill-rule="evenodd" clip-rule="evenodd" d="M122.378 137.117C122.737 137.117 123.275 137.117 123.633 137.297C123.275 137.476 122.916 138.014 122.916 138.552C122.916 139.27 123.633 139.987 124.351 139.987C124.889 139.987 125.427 139.629 125.606 139.27C125.786 139.629 125.786 140.167 125.786 140.525C125.786 142.498 124.171 143.933 122.378 143.933C120.405 143.933 118.97 142.319 118.97 140.525C118.97 138.732 120.584 137.117 122.378 137.117V137.117ZM37 125.817H261.744C256.902 124.562 246.319 122.948 247.933 116.49C238.965 126.714 217.621 123.665 212.06 118.643C205.962 127.432 170.806 124.024 168.475 117.208C160.941 126.176 137.444 126.176 129.911 117.208C127.4 124.024 92.2444 127.432 86.3254 118.643C80.9444 123.665 59.4206 126.714 50.4524 116.49C52.4254 122.768 41.8429 124.562 37 125.817" fill="#3A4D54"/>
<path d="M135.292 170.659C123.275 164.919 116.817 157.206 113.051 148.776C108.567 150.032 103.186 150.929 97.0873 151.287C94.7555 151.467 92.2444 151.467 89.7333 151.467C86.6841 151.467 83.6349 151.467 80.4063 151.287C91.3476 162.229 104.979 170.659 129.911 170.838C131.705 170.659 133.498 170.659 135.292 170.659V170.659Z" fill="#BFDBE0"/>
<path d="M117.535 156.489C115.921 154.157 114.306 151.467 113.051 148.776C108.567 150.032 103.186 150.929 97.0873 151.287C101.392 153.619 107.49 155.771 117.535 156.489V156.489Z" fill="#D4EEF1"/>
</svg>
