<svg width="300" height="300" viewBox="0 0 300 300" fill="none" xmlns="http://www.w3.org/2000/svg">
<rect width="300" height="300" rx="150" fill="black"/>
<path d="M173.916 134.377C168.614 134.377 164.667 136.98 164.667 143.246C164.667 147.966 167.268 151.243 173.631 151.243C179.023 151.243 182.688 148.065 182.688 143.05C182.688 137.367 179.409 134.377 173.916 134.377V134.377ZM163.319 178.616C162.064 180.156 160.812 181.793 160.812 183.724C160.812 187.576 165.724 188.734 172.474 188.734C178.063 188.734 185.677 188.343 185.677 183.146C185.677 180.057 182.012 179.867 177.385 179.577L163.319 178.616ZM191.84 134.667C193.573 136.885 195.408 139.969 195.408 144.402C195.408 155.098 187.023 161.362 174.882 161.362C171.795 161.362 169 160.978 167.266 160.496L164.086 165.604L173.528 166.179C190.201 167.242 200.029 167.725 200.029 180.537C200.029 191.622 190.298 197.883 173.528 197.883C156.084 197.883 149.437 193.449 149.437 185.839C149.437 181.5 151.366 179.193 154.738 176.007C151.556 174.663 150.498 172.255 150.498 169.652C150.498 167.531 151.558 165.604 153.293 163.771C155.029 161.943 156.956 160.109 159.267 157.99C154.544 155.677 150.98 150.666 150.98 143.532C150.98 132.451 158.304 124.841 173.048 124.841C177.193 124.841 179.701 125.223 181.915 125.806H200.709V133.995L191.84 134.667V134.667ZM217.663 117.157C212.168 117.157 208.987 113.975 208.987 108.48C208.987 102.993 212.168 100.002 217.663 100.002C223.253 100.002 226.431 102.991 226.431 108.48C226.433 113.975 223.253 117.157 217.663 117.157ZM205.228 175.071V167.461L210.146 166.787C211.494 166.593 211.686 166.305 211.686 164.856V136.525C211.686 135.467 211.399 134.789 210.432 134.503L205.228 132.67L206.287 124.868H226.24V164.858C226.24 166.404 226.333 166.594 227.781 166.789L232.697 167.463V175.073H205.228V175.071ZM270.806 171.333C266.659 173.353 260.591 175.188 255.094 175.188C243.627 175.188 239.293 170.566 239.293 159.671V134.423C239.293 133.848 239.293 133.46 238.52 133.46H231.775V124.884C240.259 123.917 243.629 119.677 244.689 109.173H253.847V122.862C253.847 123.534 253.847 123.826 254.618 123.826H268.205V133.462H253.847V156.492C253.847 162.177 255.197 164.393 260.399 164.393C263.101 164.393 265.892 163.721 268.205 162.853L270.806 171.333V171.333Z" fill="white"/>
<path d="M128.016 146.045L83.953 101.983C81.4176 99.446 77.3016 99.446 74.7642 101.983L65.6142 111.133L77.2183 122.74C79.9184 121.829 83.0097 122.439 85.1597 124.591C87.3213 126.755 87.9276 129.873 86.994 132.581L98.1797 143.767C100.884 142.835 104.008 143.437 106.17 145.601C109.191 148.621 109.191 153.515 106.17 156.537C103.146 159.559 98.2533 159.559 95.2317 156.537C92.9597 154.263 92.398 150.926 93.5485 148.127L83.1162 137.695L83.1143 165.148C83.8523 165.513 84.5457 165.997 85.1597 166.609C88.1813 169.629 88.1813 174.521 85.1597 177.547C82.1381 180.566 77.2415 180.566 74.2238 177.547C71.2022 174.521 71.2022 169.629 74.2238 166.609C74.9715 165.863 75.8334 165.3 76.7554 164.922V137.214C75.8334 136.838 74.9715 136.277 74.2238 135.527C71.9344 133.24 71.3843 129.883 72.5581 127.072L61.1186 115.629L30.9045 145.841C28.3652 148.381 28.3652 152.496 30.9045 155.036L74.9676 199.097C77.505 201.634 81.619 201.634 84.1602 199.097L128.016 155.237C130.555 152.7 130.555 148.582 128.016 146.045V146.045Z" fill="#F34F29"/>
</svg>
