<svg width="300" height="300" viewBox="0 0 300 300" fill="none" xmlns="http://www.w3.org/2000/svg">
<rect width="300" height="300" rx="150" fill="white"/>
<path fill-rule="evenodd" clip-rule="evenodd" d="M149.599 45C112.824 45 83 74.8157 83 111.599C83 141.023 102.082 165.988 128.545 174.793C131.873 175.41 133.095 173.348 133.095 171.589C133.095 170.002 133.033 164.755 133.004 159.191C114.475 163.219 110.566 151.333 110.566 151.333C107.537 143.634 103.171 141.587 103.171 141.587C97.1291 137.454 103.625 137.539 103.625 137.539C110.314 138.008 113.836 144.403 113.836 144.403C119.775 154.584 129.417 151.64 133.216 149.938C133.815 145.633 135.54 142.694 137.445 141.031C122.653 139.348 107.102 133.636 107.102 108.118C107.102 100.846 109.704 94.9058 113.965 90.241C113.273 88.5629 110.994 81.7879 114.61 72.6148C114.61 72.6148 120.201 70.8272 132.925 79.4446C138.239 77.9684 143.937 77.228 149.596 77.203C155.256 77.2296 160.957 77.97 166.28 79.4446C178.991 70.8287 184.576 72.6164 184.576 72.6164C188.201 81.7895 185.922 88.5629 185.23 90.2425C189.5 94.9042 192.083 100.846 192.083 108.119C192.083 133.697 176.503 139.33 161.673 140.976C164.062 143.043 166.19 147.097 166.19 153.312C166.19 162.222 166.115 169.393 166.115 171.586C166.115 173.355 167.314 175.434 170.689 174.779C197.138 165.963 216.195 141.008 216.195 111.593C216.198 74.8173 186.381 45 149.599 45Z" fill="#181616"/>
<path d="M108.226 140.62C108.077 140.951 107.556 141.05 107.083 140.823C106.598 140.604 106.329 140.155 106.485 139.821C106.626 139.483 107.149 139.388 107.633 139.615C108.118 139.834 108.394 140.288 108.228 140.62H108.226ZM110.923 143.631C110.605 143.924 109.984 143.788 109.561 143.321C109.126 142.856 109.045 142.235 109.367 141.938C109.693 141.643 110.296 141.781 110.729 142.246C111.167 142.716 111.254 143.331 110.922 143.63L110.923 143.631ZM113.548 147.463C113.141 147.748 112.473 147.482 112.061 146.889C111.651 146.299 111.651 145.59 112.069 145.303C112.482 145.018 113.14 145.275 113.556 145.862C113.966 146.465 113.966 147.177 113.548 147.465V147.463ZM117.146 151.17C116.781 151.573 116.003 151.464 115.435 150.915C114.852 150.378 114.691 149.616 115.056 149.213C115.427 148.811 116.208 148.924 116.781 149.469C117.36 150.004 117.535 150.768 117.146 151.169V151.17ZM122.111 153.321C121.948 153.844 121.2 154.08 120.445 153.86C119.691 153.631 119.199 153.02 119.35 152.495C119.506 151.969 120.261 151.723 121.02 151.959C121.771 152.185 122.264 152.789 122.109 153.321H122.111ZM127.559 153.72C127.579 154.268 126.939 154.725 126.147 154.735C125.351 154.753 124.706 154.309 124.697 153.767C124.697 153.213 125.323 152.762 126.118 152.75C126.91 152.734 127.559 153.175 127.559 153.72ZM132.63 152.858C132.724 153.393 132.176 153.944 131.389 154.09C130.616 154.234 129.902 153.902 129.802 153.37C129.708 152.822 130.267 152.274 131.038 152.13C131.826 151.992 132.53 152.314 132.63 152.859V152.858Z" fill="#181616"/>
<path d="M88.394 212.167H71.6445C71.4369 212.167 71.2378 212.249 71.091 212.396C70.9443 212.543 70.8618 212.742 70.8618 212.95V221.14C70.8618 221.347 70.9443 221.546 71.091 221.693C71.2378 221.84 71.4369 221.922 71.6445 221.922H78.1768V232.097C78.1768 232.097 76.71 232.598 72.651 232.598C67.8672 232.598 61.1815 230.851 61.1815 216.149C61.1815 201.446 68.1443 199.509 74.6813 199.509C80.3386 199.509 82.7743 200.505 84.3272 200.985C84.8124 201.132 85.2664 200.647 85.2664 200.215L87.1339 192.302C87.1369 192.184 87.1111 192.066 87.0588 191.96C87.0064 191.854 86.9291 191.762 86.8333 191.692C86.2025 191.241 82.3611 189.093 72.6541 189.093C61.4711 189.093 50 193.849 50 216.722C50 239.592 63.1335 243 74.2007 243C83.3645 243 88.9231 239.083 88.9231 239.083C89.1517 238.958 89.1767 238.637 89.1767 238.489V212.948C89.1767 212.74 89.0942 212.541 88.9475 212.394C88.8007 212.248 88.6016 212.165 88.394 212.165V212.167ZM173.943 191.047H164.511C164.408 191.047 164.306 191.068 164.211 191.108C164.116 191.147 164.03 191.206 163.957 191.279C163.885 191.352 163.828 191.439 163.789 191.534C163.75 191.629 163.73 191.731 163.731 191.834L163.734 210.061H149.032V191.834C149.033 191.731 149.013 191.629 148.974 191.534C148.936 191.439 148.878 191.352 148.806 191.279C148.734 191.206 148.648 191.148 148.553 191.108C148.459 191.068 148.357 191.047 148.254 191.047H138.823C138.72 191.047 138.618 191.068 138.523 191.108C138.428 191.147 138.342 191.206 138.27 191.279C138.197 191.352 138.14 191.439 138.101 191.534C138.062 191.629 138.042 191.731 138.043 191.834V241.19C138.043 241.624 138.394 241.978 138.823 241.978H148.254C148.357 241.977 148.459 241.956 148.554 241.916C148.648 241.876 148.734 241.818 148.807 241.745C148.879 241.671 148.936 241.585 148.975 241.489C149.013 241.394 149.033 241.292 149.032 241.189V220.078H163.734L163.709 241.189C163.709 241.624 164.06 241.978 164.492 241.978H173.943C174.046 241.977 174.148 241.956 174.243 241.916C174.338 241.876 174.424 241.818 174.496 241.745C174.568 241.671 174.625 241.585 174.664 241.489C174.703 241.394 174.722 241.292 174.721 241.189V191.833C174.721 191.397 174.377 191.047 173.943 191.047V191.047ZM100.111 192.169C96.7547 192.169 94.0309 194.913 94.0309 198.31C94.0309 201.702 96.7547 204.454 100.111 204.454C103.47 204.454 106.192 201.702 106.192 198.31C106.192 194.913 103.469 192.169 100.111 192.169ZM104.738 207.209H95.3365C94.9044 207.209 94.5193 207.654 94.5193 208.086V240.727C94.5193 241.687 95.1173 241.972 95.8906 241.972H104.359C105.291 241.972 105.518 241.515 105.518 240.711V230.778V207.997C105.518 207.894 105.498 207.792 105.459 207.697C105.42 207.602 105.363 207.515 105.291 207.442C105.218 207.369 105.132 207.311 105.037 207.272C104.943 207.232 104.841 207.211 104.738 207.211V207.209ZM210.567 207.283H201.206C201.103 207.284 201.002 207.305 200.907 207.345C200.812 207.385 200.727 207.443 200.654 207.516C200.582 207.59 200.525 207.677 200.487 207.772C200.448 207.867 200.429 207.969 200.43 208.072V232.273C200.43 232.273 198.05 234.01 194.677 234.01C191.304 234.01 190.408 232.481 190.408 229.176V208.072C190.409 207.969 190.389 207.867 190.351 207.771C190.312 207.676 190.255 207.589 190.183 207.516C190.11 207.443 190.024 207.384 189.93 207.344C189.835 207.304 189.733 207.283 189.63 207.283H180.131C179.924 207.284 179.725 207.368 179.579 207.516C179.433 207.664 179.351 207.864 179.352 208.072V230.773C179.352 240.588 184.823 242.989 192.348 242.989C198.521 242.989 203.499 239.577 203.499 239.577C203.499 239.577 203.734 241.377 203.844 241.588C203.953 241.801 204.23 242.015 204.533 242.015L210.575 241.989C210.678 241.988 210.78 241.968 210.875 241.928C210.971 241.888 211.057 241.83 211.13 241.756C211.202 241.683 211.26 241.596 211.299 241.501C211.338 241.405 211.358 241.303 211.358 241.2L211.353 208.067C211.352 207.859 211.269 207.661 211.123 207.513C210.976 207.366 210.778 207.283 210.57 207.281L210.567 207.283ZM236.148 206.175C230.832 206.175 227.216 208.546 227.216 208.546V191.833C227.217 191.73 227.197 191.628 227.159 191.533C227.12 191.437 227.063 191.351 226.99 191.278C226.918 191.205 226.832 191.146 226.738 191.107C226.643 191.067 226.541 191.046 226.438 191.045H216.982C216.879 191.045 216.777 191.066 216.681 191.105C216.586 191.145 216.5 191.203 216.427 191.276C216.354 191.349 216.297 191.436 216.257 191.532C216.218 191.627 216.199 191.729 216.199 191.833V241.189C216.199 241.292 216.218 241.394 216.257 241.49C216.297 241.585 216.354 241.672 216.427 241.745C216.5 241.819 216.586 241.877 216.681 241.916C216.777 241.956 216.879 241.976 216.982 241.976H223.544C223.841 241.976 224.064 241.824 224.228 241.557C224.389 241.291 224.626 239.281 224.626 239.281C224.626 239.281 228.492 242.944 235.815 242.944C244.409 242.944 249.34 238.586 249.34 223.373C249.34 208.161 241.466 206.173 236.147 206.173L236.148 206.175ZM232.454 233.982C229.209 233.883 227.007 232.41 227.007 232.41V216.78C227.007 216.78 229.179 215.449 231.844 215.208C235.214 214.906 238.462 215.925 238.462 223.965C238.462 232.445 236.998 234.118 232.456 233.98L232.454 233.982ZM132.757 233.797C132.345 233.797 131.29 233.965 130.205 233.965C126.73 233.965 125.551 232.349 125.551 230.258V216.379H132.627C132.73 216.379 132.833 216.359 132.928 216.319C133.023 216.279 133.11 216.221 133.183 216.148C133.255 216.074 133.313 215.987 133.352 215.892C133.391 215.796 133.41 215.694 133.41 215.59V207.989C133.41 207.886 133.39 207.784 133.351 207.688C133.312 207.593 133.254 207.506 133.181 207.433C133.109 207.36 133.022 207.302 132.927 207.263C132.832 207.223 132.73 207.203 132.627 207.203H125.551L125.54 197.858C125.54 197.502 125.359 197.325 124.949 197.325H115.306C114.933 197.325 114.732 197.491 114.732 197.85V207.508C114.732 207.508 109.899 208.674 109.574 208.768C109.411 208.816 109.268 208.915 109.167 209.05C109.065 209.186 109.01 209.35 109.01 209.52V215.589C109.009 215.692 109.029 215.793 109.068 215.889C109.107 215.984 109.164 216.07 109.236 216.144C109.308 216.217 109.394 216.275 109.489 216.315C109.584 216.355 109.685 216.375 109.788 216.376H114.732V230.978C114.732 241.826 122.339 242.89 127.474 242.89C129.817 242.89 132.624 242.139 133.087 241.967C133.369 241.862 133.53 241.572 133.53 241.258L133.536 234.581C133.533 234.375 133.45 234.177 133.304 234.03C133.158 233.884 132.961 233.8 132.754 233.796L132.757 233.797Z" fill="#100E0F"/>
</svg>
