<svg width="300" height="300" viewBox="0 0 300 300" fill="none" xmlns="http://www.w3.org/2000/svg">
<rect width="300" height="300" rx="150" fill="white"/>
<path d="M39.9497 180.898C37.957 180.898 36.1386 181.163 34.4946 181.694C32.9004 182.182 31.5029 183.004 30.3023 184.16C29.149 185.268 28.2174 186.71 27.5075 188.487C26.8424 190.26 26.465 192.377 26.3753 194.838C26.2358 198.831 26.2358 202.824 26.3753 206.817C26.465 209.301 26.8424 211.418 27.5075 213.169C28.2174 214.943 29.149 216.407 30.3023 217.563C31.4979 218.672 32.8954 219.494 34.4946 220.029C36.1386 220.517 37.957 220.762 39.9497 220.762C41.9076 220.762 43.726 220.496 45.4048 219.966C47.0837 219.388 48.526 218.548 49.7316 217.447C50.9771 216.294 51.956 214.829 52.6684 213.053C53.3783 211.28 53.7333 209.195 53.7333 206.799V203.406H42.1392C41.1628 203.406 40.6746 202.908 40.6746 201.911V200.977C40.6746 199.981 41.1628 199.483 42.1392 199.483H56.3749C57.3713 199.483 57.8695 199.981 57.8695 200.977V206.832C57.8695 209.498 57.471 211.939 56.6739 214.156C55.8768 216.33 54.701 218.218 53.1467 219.82C51.6397 221.414 49.7515 222.656 47.4823 223.545C45.2404 224.387 42.7122 224.808 39.8974 224.808C37.0129 224.808 34.4846 224.387 32.3125 223.545C30.1379 222.658 28.2971 221.438 26.7901 219.884C25.3254 218.332 24.1945 216.491 23.3974 214.361C22.6427 212.187 22.2217 209.79 22.1345 207.172C22.0448 205.18 22 203.072 22 200.85C22 198.608 22.0448 196.501 22.1345 194.528C22.2242 191.913 22.6676 189.539 23.4647 187.407C24.2618 185.232 25.3927 183.369 26.8573 181.817C28.3643 180.265 30.2052 179.067 32.3797 178.223C34.5543 177.336 37.0602 176.892 39.8974 176.892C42.9613 176.892 45.5792 177.358 47.7513 178.29C49.9259 179.221 51.7007 180.342 53.0757 181.653C54.4507 182.94 55.472 184.294 56.1396 185.714C56.8046 187.134 57.1596 188.31 57.2044 189.241C57.2493 189.64 57.1372 189.972 56.8681 190.239C56.6016 190.463 56.2467 190.575 55.8033 190.575H54.3386C53.9401 190.575 53.6511 190.488 53.4718 190.314C53.2974 190.089 53.1205 189.734 52.9412 189.249C52.5875 188.252 52.0893 187.256 51.4466 186.26C50.8239 185.263 49.9844 184.376 48.9283 183.599C47.8647 182.802 46.6005 182.158 45.1358 181.668C43.6712 181.179 41.94 180.935 39.9422 180.935L39.9497 180.898ZM71.3654 194.136C72.9596 191.072 75.9762 189.54 80.415 189.54H82.881C83.8575 189.54 84.3457 190.028 84.3457 191.005V191.939C84.3457 192.915 83.8575 193.404 82.881 193.404H80.0189C77.3536 193.404 75.2463 194.18 73.6969 195.731C72.1451 197.283 71.3691 199.391 71.3691 202.053V222.678C71.3691 223.122 71.2135 223.477 70.9021 223.743C70.6356 224.01 70.2806 224.143 69.8372 224.143H68.7723C67.7959 224.143 67.3077 223.655 67.3077 222.678V191.068C67.3077 190.625 67.4409 190.27 67.7075 190.004C67.974 189.692 68.329 189.536 68.7723 189.536H69.8372C70.2806 189.536 70.6356 189.692 70.9021 190.004C71.2135 190.27 71.3691 190.625 71.3691 191.068V194.132L71.3654 194.136ZM112.466 224.162C111.489 224.162 111.001 223.674 111.001 222.697V219.57C110.603 220.192 110.071 220.815 109.406 221.438C108.783 222.061 108.007 222.615 107.078 223.101C106.146 223.589 105.025 223.987 103.715 224.296C102.427 224.65 100.92 224.827 99.1942 224.827C97.6 224.827 96.068 224.583 94.5984 224.094C93.1786 223.564 91.9144 222.854 90.8059 221.965C89.7423 221.078 88.8779 220.035 88.2129 218.837C87.5901 217.642 87.2788 216.334 87.2788 214.914C87.2788 213.407 87.5901 212.053 88.2129 210.853C88.8779 209.657 89.7871 208.615 90.9404 207.725C92.0937 206.794 93.4687 206.04 95.0654 205.465C96.7094 204.842 98.5067 204.399 100.457 204.135L110.971 202.67V200.342C110.971 197.946 110.239 196.083 108.774 194.752C107.354 193.422 105.07 192.757 101.922 192.757C99.4383 192.757 97.5078 193.245 96.1303 194.222C94.8001 195.154 93.9607 196.175 93.612 197.286C93.4376 197.816 93.2159 198.194 92.9469 198.418C92.7227 198.592 92.4114 198.679 92.0128 198.679H91.0787C90.6801 198.679 90.3252 198.546 90.0138 198.28C89.7473 197.968 89.614 197.613 89.614 197.215C89.614 196.592 89.8357 195.816 90.2791 194.887C90.7225 193.955 91.4324 193.046 92.4088 192.159C93.4052 191.273 94.6918 190.519 96.2686 189.899C97.8204 189.234 99.7085 188.901 101.933 188.901C104.548 188.901 106.701 189.256 108.389 189.966C110.118 190.676 111.472 191.608 112.451 192.761C113.427 193.869 114.092 195.111 114.446 196.486C114.845 197.861 115.044 199.215 115.044 200.548V222.705C115.044 223.681 114.556 224.169 113.579 224.169H112.447L112.466 224.162ZM99.8891 220.967C101.396 220.967 102.816 220.723 104.149 220.235C105.524 219.704 106.722 218.928 107.743 217.907C108.739 216.911 109.537 215.624 110.134 214.047C110.712 212.495 111.001 210.677 111.001 208.592V206.332L102.419 207.527C95.0555 208.524 91.3739 210.875 91.3739 214.582C91.3739 215.69 91.618 216.644 92.1062 217.444C92.6368 218.241 93.3019 218.906 94.1014 219.439C94.8985 219.969 95.8077 220.368 96.829 220.635C97.8254 220.859 98.8467 220.971 99.8929 220.971L99.8891 220.967ZM140.825 224.827C138.03 224.827 135.746 224.329 133.973 223.332C132.199 222.336 130.757 221.094 129.646 219.607V235.375C129.646 236.351 129.158 236.839 128.181 236.839H127.049C126.073 236.839 125.584 236.351 125.584 235.375V191.005C125.584 190.028 126.073 189.54 127.049 189.54H128.181C129.158 189.54 129.646 190.028 129.646 191.005V194.132C130.754 192.625 132.197 191.383 133.973 190.407C135.746 189.411 138.03 188.912 140.825 188.912C143.398 188.912 145.572 189.378 147.345 190.31C149.164 191.197 150.628 192.395 151.739 193.904C152.848 195.369 153.645 197.055 154.131 198.963C154.661 200.827 154.973 202.735 155.065 204.688C155.11 205.353 155.132 206.085 155.132 206.885C155.132 207.682 155.11 208.414 155.065 209.082C154.975 211.039 154.664 212.97 154.131 214.873C153.642 216.736 152.845 218.423 151.739 219.932C150.631 221.397 149.166 222.595 147.345 223.527C145.572 224.413 143.398 224.857 140.825 224.857V224.827ZM129.646 204.463C129.601 205.128 129.579 205.993 129.579 207.056C129.579 208.12 129.601 208.984 129.646 209.65C129.691 210.98 129.912 212.334 130.311 213.711C130.754 215.041 131.419 216.239 132.306 217.305C133.193 218.369 134.314 219.256 135.669 219.966C136.999 220.631 138.596 220.963 140.459 220.963C142.417 220.963 144.036 220.631 145.316 219.966C146.647 219.301 147.711 218.414 148.511 217.305C149.353 216.152 149.951 214.844 150.304 213.382C150.703 211.875 150.947 210.322 151.037 208.723C151.082 207.477 151.082 206.236 151.037 204.998C150.947 203.404 150.703 201.872 150.304 200.402C149.951 198.937 149.353 197.651 148.511 196.542C147.714 195.389 146.649 194.48 145.316 193.815C144.029 193.105 142.409 192.75 140.459 192.75C138.551 192.75 136.932 193.105 135.602 193.815C134.272 194.525 133.151 195.456 132.239 196.609C131.397 197.718 130.753 198.96 130.307 200.335C129.909 201.71 129.687 203.085 129.642 204.46L129.646 204.463ZM168.254 194.136C169.45 192.584 170.892 191.32 172.581 190.344C174.26 189.367 176.544 188.879 179.433 188.879C181.695 188.879 183.669 189.256 185.356 190.011C187.035 190.766 188.432 191.808 189.548 193.138C190.701 194.469 191.566 196.044 192.141 197.865C192.719 199.683 193.008 201.657 193.008 203.787V222.686C193.008 223.662 192.52 224.151 191.543 224.151H190.422C189.446 224.151 188.958 223.662 188.958 222.686V204.116C188.958 200.566 188.093 197.794 186.365 195.799C184.636 193.756 182.108 192.735 178.78 192.735C175.586 192.735 173.036 193.731 171.127 195.724C169.219 197.717 168.265 200.515 168.265 204.12V222.69C168.265 223.666 167.777 224.154 166.801 224.154H165.669C164.692 224.154 164.204 223.666 164.204 222.69V178.357C164.204 177.381 164.692 176.892 165.669 176.892H166.801C167.777 176.892 168.265 177.381 168.265 178.357V194.125L168.254 194.136ZM220.153 176.904C222.726 176.904 225.077 177.281 227.207 178.036C229.337 178.791 231.155 179.944 232.662 181.496C234.214 183.003 235.412 184.911 236.257 187.22C237.144 189.482 237.632 192.166 237.721 195.272C237.811 197.265 237.856 199.128 237.856 200.862C237.856 202.59 237.811 204.453 237.721 206.451C237.497 212.796 235.878 217.454 232.864 220.425L237.124 226.415C237.168 226.504 237.213 226.592 237.258 226.676C237.303 226.766 237.325 226.922 237.325 227.143C237.325 227.497 237.192 227.808 236.926 228.077C236.659 228.344 236.348 228.477 235.991 228.477H234.527C234.039 228.477 233.618 228.278 233.264 227.879C232.91 227.526 232.621 227.214 232.397 226.945L229.46 222.884C226.795 224.172 223.689 224.816 220.142 224.816C214.597 224.816 210.316 223.33 207.3 220.358C204.328 217.386 202.752 212.751 202.573 206.451C202.483 204.458 202.439 202.595 202.439 200.862C202.439 199.133 202.483 197.27 202.573 195.272C202.663 192.166 203.129 189.482 203.97 187.22C204.857 184.913 206.055 183.005 207.565 181.496C209.117 179.944 210.935 178.791 213.02 178.036C215.15 177.281 217.524 176.904 220.142 176.904H220.153ZM220.153 180.902C218.29 180.902 216.558 181.191 214.959 181.768C213.365 182.299 211.968 183.163 210.767 184.362C209.571 185.557 208.617 187.089 207.905 188.957C207.24 190.821 206.862 193.037 206.773 195.608C206.728 196.604 206.683 197.536 206.638 198.403C206.638 199.245 206.638 200.067 206.638 200.869C206.638 201.666 206.638 202.506 206.638 203.387C206.683 204.229 206.728 205.138 206.773 206.115C206.862 208.73 207.24 210.972 207.905 212.84C208.615 214.659 209.546 216.166 210.7 217.361C211.895 218.557 213.293 219.444 214.892 220.022C216.486 220.552 218.235 220.818 220.138 220.818C222.046 220.818 223.795 220.552 225.384 220.022C226.978 219.444 228.353 218.557 229.509 217.361C230.704 216.166 231.636 214.659 232.304 212.84C233.014 210.977 233.412 208.735 233.499 206.115C233.544 205.138 233.567 204.229 233.567 203.387C233.567 202.501 233.567 201.661 233.567 200.869C233.567 200.072 233.567 199.25 233.567 198.403C233.567 197.561 233.544 196.629 233.499 195.608C233.41 193.035 233.011 190.818 232.304 188.957C231.639 187.094 230.707 185.562 229.509 184.362C228.313 183.166 226.916 182.302 225.317 181.768C223.722 181.191 221.991 180.902 220.123 180.902H220.153ZM252.633 220.156H275.59C276.586 220.156 277.084 220.654 277.084 221.651V222.648C277.084 223.625 276.586 224.113 275.59 224.113H249.906C248.929 224.113 248.441 223.625 248.441 222.648V179.03C248.441 178.053 248.929 177.565 249.906 177.565H251.169C252.145 177.565 252.633 178.053 252.633 179.03V220.153V220.156Z" fill="#E10098"/>
<path d="M99.9977 121.636H199.969V126.818H99.9977V121.636Z" fill="#E10098"/>
<path d="M105.652 131.332L101.169 128.739L126.162 85.4531L151.154 42.1668L155.638 44.7599L105.652 131.332Z" fill="#E10098"/>
<path d="M151.982 153.418L101.974 124.546L104.567 120.063L154.572 148.926L151.982 153.418ZM195.422 78.1664L145.417 49.2989L148.01 44.8152L198.015 73.6865L195.422 78.1664Z" fill="#E10098"/>
<path d="M104.579 78.1515L101.986 73.6678L152.031 44.8302L154.624 49.3139L104.579 78.1515Z" fill="#E10098"/>
<path d="M194.499 131.141L144.509 44.5686L148.993 41.9755L198.979 128.548L194.499 131.141ZM103.962 70.2302H109.137V127.973H103.962V70.2302ZM190.856 70.2302H196.038V127.973H190.852L190.856 70.2302Z" fill="#E10098"/>
<path d="M151.097 151.224L148.832 147.301L192.324 122.193L194.588 126.116L151.097 151.224Z" fill="#E10098"/>
<path d="M202.906 129.658C201.459 132.16 199.079 133.986 196.287 134.735C193.496 135.484 190.521 135.094 188.016 133.652C185.514 132.205 183.688 129.825 182.939 127.033C182.19 124.242 182.58 121.267 184.022 118.762C185.469 116.26 187.849 114.434 190.641 113.685C193.432 112.937 196.407 113.326 198.912 114.768C204.158 117.757 205.936 124.483 202.91 129.658H202.906ZM115.952 79.4405C114.506 81.9427 112.125 83.7687 109.334 84.5175C106.542 85.2664 103.567 84.8769 101.063 83.4347C98.5604 81.9881 96.7344 79.6077 95.9856 76.8161C95.2367 74.0245 95.6261 71.0499 97.0684 68.5451C98.515 66.0429 100.895 64.217 103.687 63.4681C106.479 62.7192 109.453 63.1087 111.958 64.5509C117.17 67.54 118.945 74.2656 115.956 79.4405H115.952ZM97.102 129.658C94.1054 124.446 95.8839 117.798 101.1 114.768C106.312 111.772 112.959 113.55 115.99 118.766C118.986 123.978 117.208 130.626 111.992 133.656C106.746 136.652 100.099 134.874 97.102 129.658V129.658ZM184.059 79.4405C181.063 74.2282 182.841 67.5811 188.057 64.5509C193.27 61.5543 199.917 63.3328 202.947 68.5489C205.944 73.7611 204.165 80.4082 198.949 83.4384C196.444 84.8807 193.47 85.2701 190.678 84.5213C187.886 83.7724 185.506 81.9464 184.059 79.4442V79.4405ZM149.995 160.225C143.972 160.225 139.103 155.357 139.103 149.334C139.103 143.311 143.983 138.442 149.995 138.442C156.006 138.442 160.886 143.311 160.886 149.334C160.881 152.221 159.732 154.988 157.691 157.03C155.649 159.071 152.882 160.22 149.995 160.225V160.225ZM149.995 59.7832C143.972 59.7832 139.103 54.9147 139.103 48.8916C139.103 42.8685 143.983 38 149.995 38C156.006 38 160.886 42.8685 160.886 48.8916C160.889 50.3226 160.609 51.74 160.062 53.0626C159.516 54.3851 158.713 55.5868 157.702 56.5987C156.69 57.6105 155.488 58.4127 154.166 58.9592C152.843 59.5057 151.426 59.7857 149.995 59.7832Z" fill="#E10098"/>
</svg>
