<svg width="300" height="300" viewBox="0 0 300 300" fill="none" xmlns="http://www.w3.org/2000/svg">
<circle cx="150" cy="150" r="150" fill="white"/>
<circle cx="150" cy="150" r="150" stroke="#F16529"/>
<path d="M80.471 250.683L65 77.1569H235L219.513 250.655L149.896 269.955L80.471 250.683Z" fill="#E44D26"/>
<path d="M150 255.203L206.254 239.608L219.489 91.3452H150V255.203Z" fill="#F16529"/>
<path d="M150 155.703H121.838L119.893 133.91H150V112.628H149.926H96.6343L97.1437 118.337L102.374 176.985H150V155.703Z" fill="#EBEBEB"/>
<path d="M150 210.976L149.907 211L126.205 204.6L124.689 187.627H113.172H103.325L106.307 221.043L149.902 233.145L150 233.118V210.976Z" fill="#EBEBEB"/>
<path d="M80.8169 30H91.6322V40.6855H101.526V30H112.342V62.3584H101.526V51.5229H91.6327V62.3584H80.8174V30H80.8169Z" fill="#4A4A4A"/>
<path d="M126.564 40.7305H117.043V30H146.906V40.7305H137.38V62.3584H126.564V40.7305H126.564Z" fill="#4A4A4A"/>
<path d="M151.645 30H162.923L169.86 41.3698L176.79 30H188.072V62.3584H177.301V46.3198L169.86 57.825H169.674L162.228 46.3198V62.3584H151.645V30V30Z" fill="#4A4A4A"/>
<path d="M193.454 30H204.273V51.6625H219.483V62.3584H193.454V30Z" fill="#4A4A4A"/>
<path d="M149.926 155.703V176.985H176.133L173.663 204.587L149.926 210.993V233.135L193.556 221.043L193.876 217.447L198.877 161.418L199.397 155.703H193.662H149.926Z" fill="white"/>
<path d="M149.926 112.628V125.846V133.858V133.91H201.265H201.333L201.76 129.126L202.73 118.337L203.239 112.628H149.926Z" fill="white"/>
</svg>
