<svg width="300" height="300" viewBox="0 0 300 300" fill="none" xmlns="http://www.w3.org/2000/svg">
<rect width="300" height="300" rx="150" fill="#F7DF1E"/>
<path d="M262 38H39V261H262V38Z" fill="#F7DF1E"/>
<path d="M188.799 212.22C193.291 219.554 199.135 224.945 209.471 224.945C218.154 224.945 223.701 220.605 223.701 214.609C223.701 207.423 218.002 204.878 208.445 200.698L203.206 198.45C188.084 192.008 178.039 183.938 178.039 166.876C178.039 151.16 190.013 139.196 208.728 139.196C222.051 139.196 231.63 143.833 238.532 155.974L222.214 166.452C218.621 160.009 214.745 157.471 208.728 157.471C202.59 157.471 198.7 161.365 198.7 166.452C198.7 172.738 202.594 175.283 211.584 179.177L216.823 181.421C234.628 189.056 244.68 196.84 244.68 214.34C244.68 233.206 229.86 243.542 209.956 243.542C190.495 243.542 177.922 234.268 171.77 222.113L188.799 212.22ZM114.774 214.035C118.066 219.876 121.06 224.814 128.26 224.814C135.145 224.814 139.488 222.12 139.488 211.646V140.392H160.443V211.929C160.443 233.628 147.721 243.503 129.152 243.503C112.374 243.503 102.658 234.82 97.7163 224.363L114.774 214.035Z" fill="black"/>
</svg>
