<svg width="300" height="300" viewBox="0 0 300 300" fill="none" xmlns="http://www.w3.org/2000/svg">
<circle cx="150" cy="150" r="150" fill="white"/>
<path d="M77.6525 110.113H129.331V114.22H82.3897V145.135H126.532V149.242H82.3897V183.183H129.87V187.291H77.6525V110.113ZM133.961 110.113H139.452L163.784 144.054L188.654 110.113L222.482 67L166.906 147.621L195.545 187.291H189.839L163.784 151.188L137.622 187.291H132.023L160.877 147.621L133.961 110.113ZM197.591 114.22V110.113H256.483V114.22H229.352V187.291H224.614V114.22H197.591ZM13 110.113H18.9215L100.576 232.301L66.8322 187.291L17.9526 115.95L17.7372 187.291H13V110.113ZM256.006 181.944C255.038 181.944 254.312 181.194 254.312 180.225C254.312 179.256 255.038 178.506 256.006 178.506C256.985 178.506 257.699 179.256 257.699 180.225C257.699 181.194 256.985 181.944 256.006 181.944ZM260.661 177.421H263.195C263.23 178.794 264.232 179.717 265.707 179.717C267.355 179.717 268.288 178.725 268.288 176.867V165.1H270.869V176.879C270.869 180.225 268.933 182.151 265.73 182.151C262.723 182.151 260.661 180.282 260.661 177.421ZM274.245 177.271H276.803C277.022 178.852 278.566 179.856 280.79 179.856C282.864 179.856 284.384 178.783 284.384 177.306C284.384 176.037 283.417 175.275 281.216 174.756L279.073 174.237C276.066 173.533 274.694 172.08 274.694 169.634C274.694 166.669 277.114 164.696 280.744 164.696C284.119 164.696 286.585 166.669 286.735 169.472H284.223C283.981 167.938 282.645 166.98 280.709 166.98C278.67 166.98 277.31 167.961 277.31 169.461C277.31 170.649 278.186 171.33 280.352 171.837L282.184 172.287C285.594 173.083 287 174.468 287 176.971C287 180.156 284.534 182.151 280.594 182.151C276.907 182.151 274.429 180.248 274.245 177.271Z" fill="black"/>
</svg>
