<svg width="300" height="300" viewBox="0 0 300 300" fill="none" xmlns="http://www.w3.org/2000/svg">
<rect width="300" height="300" rx="150" fill="white"/>
<path d="M149.736 129.884C159.397 129.884 167.229 122.052 167.229 112.392C167.229 102.731 159.397 94.8995 149.736 94.8995C140.076 94.8995 132.244 102.731 132.244 112.392C132.244 122.052 140.076 129.884 149.736 129.884Z" fill="#61DAFB"/>
<path d="M149.736 176.717C163.467 190.072 177.009 197.971 187.918 197.971C191.492 197.971 194.877 197.219 197.699 195.526C207.479 189.884 211.053 175.777 207.667 155.652C207.103 152.078 206.351 148.504 205.41 144.743C209.172 143.614 212.558 142.486 215.943 141.357C234.94 134.022 245.473 123.865 245.473 112.768C245.473 101.483 234.94 91.3258 215.943 84.1785C212.558 82.8619 209.172 81.7334 205.41 80.793C206.351 77.0312 207.103 73.4576 207.667 69.8839C210.865 49.3824 207.291 35.0878 197.511 29.4451C194.689 27.7523 191.304 27 187.73 27C177.009 27 163.279 34.8997 149.548 48.2539C136.006 34.8997 122.464 27 111.555 27C107.981 27 104.595 27.7523 101.774 29.4451C91.9936 35.0878 88.42 49.1943 91.8055 69.3196C92.3698 72.8933 93.1222 76.467 94.0626 80.2287C90.3008 81.3572 86.9153 82.4857 83.5297 83.6143C64.5329 90.9497 54 101.106 54 112.204C54 123.489 64.5329 133.645 83.5297 140.793C86.9153 142.109 90.3008 143.238 94.0626 144.178C93.1222 147.94 92.3698 151.514 91.8055 155.087C88.6081 175.213 92.1817 189.507 101.774 194.962C104.595 196.655 107.981 197.407 111.555 197.407C122.464 197.783 136.006 189.884 149.736 176.717V176.717ZM139.204 151.326C142.589 151.514 146.163 151.514 149.736 151.514C153.31 151.514 156.884 151.514 160.269 151.326C156.884 155.84 153.31 159.978 149.736 163.928C146.163 159.978 142.589 155.84 139.204 151.326V151.326ZM115.881 131.953C117.762 135.15 119.454 138.16 121.523 141.169C115.693 140.417 110.238 139.476 104.972 138.348C106.664 133.269 108.545 128.003 110.802 122.736C112.307 125.746 114 128.943 115.881 131.953V131.953ZM104.972 86.6237C110.238 85.4951 115.693 84.5547 121.523 83.8024C119.642 86.8118 117.762 89.8212 115.881 93.0186C114 96.2161 112.307 99.2255 110.802 102.423C108.357 96.9685 106.476 91.702 104.972 86.6237V86.6237ZM115.316 112.392C117.762 107.313 120.395 102.235 123.404 97.1566C126.226 92.2663 129.423 87.376 132.62 82.4857C138.263 82.1096 143.906 81.9215 149.736 81.9215C155.755 81.9215 161.398 82.1096 166.852 82.4857C170.238 87.376 173.247 92.2663 176.069 97.1566C179.078 102.235 181.711 107.313 184.156 112.392C181.711 117.47 179.078 122.548 176.069 127.627C173.247 132.517 170.05 137.407 166.852 142.298C161.21 142.674 155.567 142.862 149.736 142.862C143.718 142.862 138.075 142.674 132.62 142.298C129.235 137.407 126.226 132.517 123.404 127.627C120.395 122.548 117.762 117.47 115.316 112.392V112.392ZM188.859 102.235L183.78 92.8305C181.899 89.6331 180.207 86.6237 178.138 83.6143C183.968 84.3666 189.423 85.3071 194.689 86.4356C192.997 91.702 191.116 96.9685 188.859 102.235ZM188.859 122.548C191.116 127.815 192.997 133.081 194.689 138.16C189.423 139.288 183.968 140.229 178.138 140.981C180.018 137.971 181.899 134.962 183.78 131.765C185.473 128.943 187.166 125.746 188.859 122.548ZM193.185 187.815C191.68 188.755 189.799 189.131 187.73 189.131C178.514 189.131 167.04 181.608 155.755 170.323C161.21 164.492 166.476 157.909 171.743 150.573C180.583 149.821 189.047 148.504 196.946 146.624C197.887 150.009 198.451 153.395 199.015 156.78C201.649 172.768 199.58 184.241 193.185 187.815V187.815ZM202.965 88.6926C224.031 94.7114 236.633 103.928 236.633 112.392C236.633 119.727 227.981 127.062 212.746 132.893C209.736 134.022 206.351 135.15 202.965 136.091C200.52 128.379 197.511 120.479 193.749 112.392C197.511 104.304 200.708 96.4042 202.965 88.6926ZM187.918 35.652C189.987 35.652 191.68 36.0282 193.373 36.9686C199.58 40.5423 201.837 51.8275 199.203 68.003C198.639 71.2005 197.887 74.5861 197.134 78.1597C189.235 76.467 180.771 75.1503 171.931 74.2099C166.852 66.8745 161.398 60.2914 155.943 54.4607C167.229 43.3636 178.702 35.652 187.918 35.652V35.652ZM160.269 73.4576C156.884 73.2695 153.31 73.2695 149.736 73.2695C146.163 73.2695 142.589 73.2695 139.204 73.4576C142.589 68.9435 146.163 64.8055 149.736 60.8557C153.31 64.8055 156.884 69.1315 160.269 73.4576ZM106.288 36.9686C107.793 36.0282 109.674 35.652 111.743 35.652C120.959 35.652 132.432 43.1755 143.718 54.4607C138.263 60.2914 132.997 66.8745 127.73 74.2099C118.89 74.9623 110.426 76.2789 102.527 78.1597C101.586 74.7742 101.022 71.3886 100.458 68.003C97.8243 52.0156 99.8933 40.7304 106.288 36.9686V36.9686ZM96.5077 136.091C75.442 130.072 62.8401 120.856 62.8401 112.392C62.8401 105.056 71.4921 97.7208 86.7272 91.8901C89.7366 90.7616 93.1222 89.6331 96.5077 88.6926C98.9529 96.4042 101.962 104.304 105.724 112.392C101.962 120.479 98.7648 128.567 96.5077 136.091ZM100.458 156.78C101.022 153.583 101.774 150.197 102.527 146.624C110.426 148.316 118.89 149.633 127.73 150.573C132.809 157.909 138.263 164.492 143.718 170.323C132.432 181.42 120.959 189.131 111.743 189.131C109.674 189.131 107.981 188.755 106.288 187.815C99.8933 184.241 97.8243 172.768 100.458 156.78V156.78ZM92.5579 234.272C96.6958 229.194 96.8839 223.551 94.6269 217.909C92.3698 212.266 87.6676 209.633 81.8369 209.445C74.8777 209.257 67.7304 209.445 60.7711 209.445H59.4545V258.159H65.0971V239.727H73.9373C75.0658 239.727 76.0062 240.103 76.5705 241.043L87.8557 258.535C88.0438 258.912 88.6081 259.476 88.9842 259.476H96.3196C91.8055 252.517 87.4795 245.934 82.9654 239.162C86.9153 238.598 90.3008 237.282 92.5579 234.272V234.272ZM65.0971 233.896V215.275H67.1661C71.4921 215.275 76.0062 215.087 80.3322 215.463C85.4106 215.652 88.9842 219.601 88.9842 224.68C88.9842 229.758 84.8463 233.708 79.768 233.896C75.2539 234.084 70.7398 233.896 65.0971 233.896V233.896ZM137.887 236.341C134.878 223.175 122.84 219.789 113.624 223.927C106.476 227.125 103.279 233.332 103.091 241.043C102.903 246.874 104.595 252.14 109.11 256.09C114.188 260.604 120.395 261.169 126.79 260.04C130.363 259.288 133.561 257.595 136.006 254.962C135.066 253.645 134.125 252.329 133.185 251.2C127.918 255.714 122.088 257.219 115.693 254.209C111.555 252.14 109.486 247.062 109.11 243.3H138.263V240.855C138.451 239.162 138.263 237.658 137.887 236.341V236.341ZM109.486 239.351C108.921 233.708 114.564 227.689 120.771 227.689C127.918 227.501 132.432 231.827 132.62 239.351H109.486V239.351ZM167.229 222.987C164.407 222.423 161.398 222.235 158.577 222.423C154.062 222.799 150.113 224.868 146.915 228.253C147.856 229.57 148.608 230.887 149.736 232.391C150.113 232.015 150.489 231.639 150.865 231.451C153.874 228.63 157.448 227.125 161.774 227.501C165.16 227.689 168.357 228.818 169.298 232.203C170.05 234.836 169.862 237.658 170.05 240.479C169.486 240.479 169.298 240.291 169.109 240.103C164.595 236.341 159.517 235.589 154.062 236.905C148.984 238.222 145.787 242.172 145.41 247.25C145.034 253.081 147.667 257.407 152.746 259.476C155.943 260.792 159.517 260.792 162.903 260.04C165.536 259.476 166.664 257.971 170.426 255.902V258.347H175.692C175.692 250.824 175.881 241.608 175.692 232.956C175.692 227.501 172.495 224.115 167.229 222.987ZM169.862 246.686C169.674 247.25 169.862 247.814 169.862 248.379C169.862 252.329 168.921 253.645 165.16 255.15C162.526 256.09 159.705 256.466 156.884 255.526C153.686 254.586 151.429 251.764 151.429 248.567C151.241 245.369 153.31 242.172 156.508 241.231C160.834 239.727 164.783 240.667 168.357 243.3C169.486 244.241 170.238 245.181 169.862 246.686V246.686ZM199.203 228.065C204.094 226.561 208.608 227.501 211.993 231.639L212.558 232.015C213.874 230.887 215.003 229.758 216.507 228.441C215.943 227.877 215.755 227.501 215.379 226.937C209.924 221.106 199.203 220.354 192.62 225.056C183.404 231.827 183.592 244.993 188.106 251.952C192.432 258.535 198.639 260.792 205.975 259.852C210.301 259.288 213.874 257.219 216.695 253.645C215.379 252.517 214.062 251.388 212.746 250.072C212.369 250.448 212.181 250.636 211.993 251.012C206.915 256.655 198.451 256.09 193.937 250.072C191.304 246.498 190.739 242.36 191.492 238.222C191.868 233.52 194.313 229.758 199.203 228.065ZM238.326 253.645C237.949 253.833 237.761 254.021 237.761 254.021C236.257 255.15 234.752 255.338 233.059 254.774C231.366 254.021 231.178 252.517 230.99 251.012V229.57C230.99 229.194 230.99 229.946 231.178 228.065H238.326V222.423H230.802V213.018H225.159V223.175H220.269C219.893 223.175 219.329 223.551 219.329 223.927C219.141 225.244 219.329 226.184 219.329 228.065H225.348V252.14C225.348 255.15 226.1 257.783 228.733 259.288C231.554 260.981 237.009 260.604 239.454 258.535C239.83 258.347 240.018 257.595 240.018 257.407C239.454 256.278 238.89 254.962 238.326 253.645V253.645Z" fill="#61DAFB"/>
</svg>
