<svg width="300" height="300" viewBox="0 0 300 300" fill="none" xmlns="http://www.w3.org/2000/svg">
<rect width="300" height="300" rx="150" fill="white"/>
<path fill-rule="evenodd" clip-rule="evenodd" d="M41 126.722C41 128.01 41.3808 128.86 41.5943 129.686C42.9852 135.058 45.9749 139.668 49.5222 143.874C54.5744 149.867 60.7618 154.692 67.1001 159.229C72.5975 163.164 78.2072 167.01 83.7267 170.915C84.6743 171.586 85.5703 172.357 86.5987 173.179C85.7138 173.655 84.9778 174.075 84.2125 174.461C76.9285 178.139 69.9205 182.263 63.4608 187.258C59.5677 190.269 55.8034 193.469 53.1448 197.651C48.8672 204.377 47.353 211.542 50.5414 219.193C51.4724 221.428 52.8928 223.359 54.8964 224.785C55.5458 225.247 56.2744 225.705 57.0343 225.884C58.9808 226.341 60.9642 226.639 62.9346 227L68.5149 226.996C74.6857 226.449 80.3028 224.344 85.3789 220.856C93.3123 215.405 98.6571 208.097 100.955 198.717C102.626 191.899 102.694 185.074 100.725 178.288C100.543 177.658 100.313 177.04 100.074 176.431C99.8346 175.821 99.5531 175.227 99.2219 174.467L111.873 167.224L112.062 167.386C111.832 168.135 111.588 168.882 111.38 169.639C109.876 175.104 108.877 180.665 109.236 186.338C109.619 192.383 111.313 198.041 114.868 203.091C117.742 207.176 124.59 207.328 127.644 203.228C128.728 201.772 129.778 200.25 130.567 198.625C132.63 194.385 134.54 190.069 136.51 185.783L136.854 184.999C136.712 187.029 136.547 188.811 136.471 190.595C136.354 193.381 136.517 196.151 137.474 198.801C138.293 201.069 139.686 202.763 142.295 203.062C144.079 203.265 145.501 202.452 146.813 201.42C148.863 199.81 150.528 197.821 151.764 195.561C155.262 189.166 158.853 182.81 162.023 176.255C165.453 169.164 168.452 161.867 171.636 154.655L172.163 153.377C172.915 156.32 173.439 159.203 174.405 161.933C175.528 165.1 176.917 168.192 178.429 171.197C179.145 172.617 179.062 173.538 178.07 174.729C173.92 179.711 169.841 184.754 165.758 189.791C164.855 190.903 163.955 192.035 163.203 193.249C162.748 193.987 162.446 194.887 162.319 195.748C162.075 197.392 163.096 198.979 164.864 199.358C166.479 199.704 168.2 199.832 169.846 199.711C175.544 199.294 180.718 197.303 185.292 193.929C191.218 189.558 193.12 183.594 191.685 176.526C191.297 174.608 190.611 172.743 189.943 170.895C189.643 170.062 189.623 169.477 190.169 168.701C194.907 161.966 198.954 154.82 202.719 147.51C202.868 147.222 203.02 146.935 203.282 146.627C204.502 152.946 206.338 159.037 209.627 164.563C207.949 166.173 206.288 167.633 204.785 169.241C201.475 172.784 198.605 176.63 197.107 181.321C196.463 183.343 195.968 185.399 196.255 187.558C196.701 190.912 199.46 193.092 202.774 192.328C209.865 190.694 215.986 187.368 220.459 181.475C223.469 177.508 223.743 173.082 222.482 168.446C222.136 167.186 221.726 165.946 221.285 164.501C223.034 163.96 224.74 163.312 226.504 162.911C235.665 160.83 244.726 161.193 253.554 164.486C258.707 166.409 262.871 169.628 265.34 174.69C268.355 180.88 266.688 186.752 260.828 190.665C260.282 191.029 259.656 191.317 259.204 191.773C258.926 192.053 258.759 192.614 258.827 193C258.865 193.225 259.463 193.507 259.807 193.504C261.734 193.489 263.296 192.484 264.795 191.45C268.552 188.862 271.293 185.38 271.884 180.795L272 180.451L271.858 177.465C271.801 177.293 271.901 177.123 271.888 176.993C271.089 170.316 267.507 165.138 262.297 161.079C256.262 156.381 249.136 154.446 241.6 154.141C235.459 153.891 229.422 154.8 223.634 156.894C221.984 157.489 220.348 158.194 218.689 158.859C218.466 158.458 218.227 158.073 218.03 157.676C216.326 154.203 214.262 150.884 213.806 146.902C213.482 144.074 213.084 141.249 213.76 138.452C214.409 135.761 215.255 133.116 216.052 130.462C216.462 129.096 216.174 128.33 214.864 127.715C214.407 127.5 213.911 127.314 213.417 127.242C210.198 126.777 207.022 127.042 203.904 127.945C202.8 128.266 201.998 128.881 201.753 130.098C201.613 130.796 201.328 131.464 201.129 132.153C200.314 135.016 199.736 137.934 198.419 140.661C195.118 147.503 191.35 154.086 187.494 160.621C187.076 161.326 186.637 162.019 186.11 162.874C184.756 160.053 183.312 157.522 182.874 154.555C182.379 151.199 181.989 147.849 182.828 144.519C183.452 142.035 184.267 139.597 185.018 137.146C185.373 135.981 185.209 135.369 184.149 134.756C183.614 134.446 183.008 134.171 182.405 134.082C179.066 133.589 175.776 133.847 172.554 134.884C171.555 135.206 171.031 135.849 170.726 136.875C169.828 139.901 169.062 143 167.802 145.878C162.698 157.527 157.448 169.117 152.202 180.704C151.107 183.124 149.825 185.459 148.59 187.815C148.278 188.412 147.821 188.937 147.431 189.498C147.119 189.13 146.997 188.877 146.999 188.624C147.008 187.135 146.83 185.602 147.115 184.162C147.978 179.806 148.971 175.474 150.018 171.159C150.883 167.594 151.889 164.063 152.848 160.522C153.17 159.337 153.175 158.229 152.32 157.233C150.883 155.564 147.88 155.197 146.099 156.483L145.312 156.927L145.465 155.663C145.84 152.954 145.915 150.254 145.168 147.585C144.237 144.259 141.853 142.344 138.387 142.451C136.771 142.5 135.075 142.775 133.579 143.361C127.289 145.816 122.452 150.162 118.334 155.392C117.961 155.866 117.468 156.298 116.941 156.59C111.619 159.528 106.28 162.429 100.942 165.341L95.0013 168.582C93.408 167.069 91.96 165.499 90.3171 164.167C85.2998 160.094 80.2016 156.121 75.1494 152.093C70.6712 148.523 66.3328 144.804 63.0138 140.077C60.5447 136.56 58.9532 132.712 58.8005 128.363C58.6073 122.822 60.1859 117.759 63.0193 113.046C66.6438 107.017 71.5874 102.177 77.0223 97.7939C82.7719 93.1597 88.9905 89.2253 95.4355 85.6333C104.453 80.609 113.727 76.1616 123.672 73.2254C133.868 70.2141 144.214 68.4904 154.885 69.692C159.079 70.1646 163.153 71.1208 166.893 73.1631C169.758 74.7255 172.107 76.7715 173.2 79.9697C174.278 83.1165 174.245 86.3055 173.498 89.5018C171.98 95.9751 168.42 101.311 163.94 106.079C156.592 113.895 147.628 119.216 137.537 122.731C131.714 124.758 125.723 126.031 119.571 126.546C114.55 126.966 109.634 126.522 104.879 124.784C101.731 123.632 98.9901 121.87 96.786 119.313C96.3922 118.855 95.8881 118.358 95.154 118.787C94.4346 119.208 94.3077 119.89 94.5487 120.58C94.9516 121.727 95.3233 122.921 95.9507 123.947C97.5274 126.52 99.8272 128.387 102.359 129.988C107.222 133.067 112.656 134.102 118.292 134.342C126.844 134.71 135.187 133.439 143.413 131.155C155.157 127.894 165.368 122.135 173.557 113.05C180.376 105.485 185.246 96.9477 186.289 86.6389C186.799 81.6072 186.256 76.6781 183.89 72.0879C181.323 67.1148 177.242 63.4166 172.363 60.8688C165.258 57.1596 157.589 55 149.674 55H141.744C132.159 55 122.892 57.7347 113.884 60.997C107.065 63.4679 100.379 66.384 93.8882 69.6114C79.7527 76.6433 66.5886 85.1223 55.7758 96.781C50.3887 102.589 45.8278 108.998 43.2041 116.545C42.4369 118.754 41.7083 121.122 41.1601 123.407L41 126.722ZM92.3795 189.371C91.7669 197.539 88.0485 204.161 81.9715 209.524C78.5531 212.539 74.6324 214.686 70.0659 215.44C68.41 215.713 66.7155 215.779 65.1093 215.096C62.8187 214.121 62.3054 212.097 62.2613 209.941C62.1932 206.505 63.402 203.399 65.0597 200.442C67.2233 196.588 70.3952 193.65 73.7824 190.906C79.1179 186.582 84.9061 182.922 90.8341 179.467L91.2811 179.284C92.1974 182.655 92.6334 185.983 92.3795 189.371ZM138.666 153.875C138.234 156.483 137.693 159.094 136.928 161.621C134.282 170.371 130.884 178.85 127.21 187.216C126.531 188.763 125.543 190.176 124.684 191.643C124.551 191.87 124.354 192.066 124.163 192.255C123.099 193.3 122.091 193.245 121.554 191.877C120.928 190.287 120.544 188.586 120.213 186.902C119.99 185.772 120.043 184.585 119.974 183.428C120.045 175.196 122.568 167.715 126.847 160.751C128.612 157.879 130.532 155.143 133.467 153.325C134.368 152.767 135.38 152.318 136.402 152.032C137.965 151.595 138.926 152.314 138.666 153.875ZM170.245 193.931L181.595 180.737C182.068 185.637 173.703 195.418 170.245 193.931ZM206.496 185.052C205.694 185.51 204.82 185.84 203.997 186.263C203.245 186.651 202.997 186.259 202.974 185.615C202.96 185.177 203.024 184.719 203.146 184.294C204.678 178.912 207.499 174.319 211.695 170.582L211.99 170.432C213.986 175.991 211.679 182.096 206.496 185.052Z" fill="#CB6699"/>
</svg>
