<svg width="300" height="300" viewBox="0 0 300 300" fill="none" xmlns="http://www.w3.org/2000/svg">
<rect width="300" height="300" rx="150" fill="white"/>
<path d="M184.111 150.204C182.51 155.918 179.601 161.182 175.615 165.579V131.64C175.577 131.014 175.41 130.402 175.124 129.843C174.839 129.284 174.441 128.79 173.955 128.392C173.47 127.995 172.907 127.701 172.303 127.531C171.699 127.361 171.066 127.317 170.444 127.403C169.101 127.403 167.939 128.087 167.939 129.043C168.092 130.069 168.168 131.104 168.167 132.141V147.698C167.005 154.532 164.112 160.75 160.24 160.75C157.438 160.75 155.684 157.948 155.684 152.732C155.693 146.126 156.637 139.554 158.486 133.212C158.873 131.754 161.675 127.904 156.937 127.904C151.812 127.904 152.382 129.841 151.812 131.481C149.89 138.581 148.805 145.881 148.578 153.233C148.578 161.638 152.108 167.151 158.577 167.151C162.723 167.151 165.729 164.349 168.053 160.477V172.754C161.675 178.357 156.072 183.3 156.072 193.049C156.072 199.244 159.944 204.164 165.342 204.164C170.262 204.164 175.387 200.588 175.387 190.498V173.711C182.222 168.211 187.161 160.707 189.509 152.254C189.543 151.936 189.543 151.615 189.509 151.297C189.484 150.386 189.167 149.508 188.606 148.79C188.044 148.073 187.267 147.554 186.389 147.311C185.432 147.311 184.658 148.177 184.111 150.204V150.204ZM165.547 198.037C163.998 198.037 163.042 195.759 163.042 192.73C162.972 190.386 163.392 188.053 164.275 185.881C165.157 183.708 166.483 181.743 168.167 180.111V190.452C168.167 192.297 168.554 198.083 165.456 198.083L165.547 198.037Z" fill="#2C8EBB"/>
<path d="M211.809 160.659C209.531 160.659 208.529 158.381 208.529 156.103V140.159C208.494 139.526 208.328 138.907 208.041 138.342C207.754 137.777 207.352 137.278 206.861 136.877C206.37 136.476 205.801 136.182 205.19 136.014C204.579 135.846 203.94 135.807 203.313 135.899C201.969 135.899 200.807 136.583 200.807 137.539C201.014 138.561 201.143 139.596 201.194 140.637V155.534C200.124 158.244 198.393 160.568 195.773 160.568C192.379 160.568 190.261 157.675 190.261 152.641C190.261 138.724 198.871 132.437 206.206 132.437C207.162 132.437 208.142 132.619 209.007 132.619C209.873 132.619 210.26 132.05 210.26 130.342C210.272 129.762 210.158 129.187 209.926 128.655C209.695 128.124 209.35 127.649 208.917 127.264C208.484 126.879 207.973 126.592 207.418 126.423C206.863 126.254 206.279 126.208 205.704 126.287C193.906 126.287 182.699 136.15 182.699 152.299C182.699 160.522 186.662 166.9 194.202 166.9C195.794 166.897 197.367 166.539 198.804 165.854C200.242 165.168 201.51 164.172 202.516 162.937C203.308 164.186 204.411 165.207 205.716 165.902C207.022 166.597 208.485 166.941 209.964 166.9C218.278 166.9 222.15 158.199 223.79 151.821C223.821 151.594 223.821 151.365 223.79 151.138C223.724 150.24 223.376 149.386 222.795 148.699C222.214 148.011 221.43 147.525 220.556 147.311C219.599 147.311 218.619 148.177 218.278 150.204C217.412 154.463 215.658 160.636 211.809 160.636V160.659Z" fill="#2C8EBB"/>
<path d="M239.757 167.037C248.071 167.037 251.852 158.335 253.583 151.958C253.583 151.776 253.583 151.57 253.583 151.274C253.537 150.331 253.179 149.43 252.564 148.712C251.95 147.995 251.114 147.502 250.189 147.311C249.233 147.311 248.253 148.177 247.912 150.204C247.046 154.463 245.406 160.636 240.942 160.636C238.322 160.636 237.069 158.131 237.069 155.42C237.069 145.762 241.42 134.351 241.42 133.189C241.807 130.911 237.935 127.768 236.864 127.768H231.831C230.115 127.761 228.402 127.631 226.706 127.381C226.46 125.935 225.705 124.625 224.577 123.689C223.448 122.753 222.022 122.252 220.556 122.278C219.935 122.241 219.313 122.331 218.728 122.543C218.143 122.756 217.608 123.085 217.156 123.512C216.704 123.939 216.343 124.454 216.098 125.025C215.852 125.596 215.726 126.212 215.727 126.834C215.776 128.149 216.19 129.425 216.922 130.519C217.654 131.613 218.675 132.482 219.872 133.029C219.863 138.632 219.329 144.222 218.278 149.726C217.412 153.006 222.423 156.559 223.699 152.436C225.236 146.595 226.085 140.594 226.227 134.556H234.632C231.782 141.339 230.147 148.571 229.803 155.921C229.803 164.417 235.224 166.945 239.757 166.945V167.037Z" fill="#2C8EBB"/>
<path d="M248.367 162.777C248.332 163.372 248.429 163.966 248.65 164.519C248.871 165.072 249.211 165.569 249.646 165.976C250.08 166.382 250.6 166.688 251.166 166.871C251.732 167.055 252.332 167.111 252.923 167.037C255.724 167.037 255.633 164.759 255.633 162.891V148.769C256.317 141.138 262.307 132.824 265.109 132.824C266.954 132.824 267.136 135.33 267.136 138.337V157.971C267.136 162.891 270.143 167.082 275.268 167.082C283.582 167.082 287.682 158.381 289.344 152.003C289.375 151.777 289.375 151.547 289.344 151.32C289.298 150.377 288.94 149.475 288.325 148.758C287.711 148.04 286.876 147.547 285.951 147.357C284.994 147.357 284.014 148.222 283.673 150.249C282.807 154.509 280.826 160.682 276.953 160.682C274.448 160.682 274.448 157.106 274.448 156.126V136.196C274.448 131.64 272.899 126.424 266.43 126.424C261.692 126.424 258.207 130.569 255.611 135.991V131.64C255.576 131.007 255.41 130.388 255.123 129.823C254.836 129.258 254.434 128.759 253.943 128.358C253.452 127.958 252.883 127.663 252.272 127.495C251.661 127.327 251.021 127.288 250.394 127.381C249.051 127.381 247.889 128.064 247.889 129.021C248.095 130.042 248.225 131.078 248.276 132.118V162.777H248.367Z" fill="#2C8EBB"/>
<path d="M107.464 167.082C103.397 167.441 99.5054 168.906 96.2117 171.319C90.2439 175.009 87.2828 174.758 87.2828 174.758V174.599C86.8728 173.938 89.1733 167.97 86.5994 160.932C83.7978 153.165 79.3561 151.297 79.7661 150.705C83.0445 146.508 85.3756 141.652 86.5994 136.469C87.5106 131.913 87.26 124.283 85.2328 120.319C84.8456 119.59 81.4744 121.549 81.4744 121.549C80.3597 118.899 79.0104 116.352 77.4428 113.942C74.5956 112.119 71.4978 121.504 71.4978 121.504C69.3402 121.303 67.1656 121.611 65.1483 122.402C63.131 123.193 61.3271 124.445 59.8811 126.059C58.8025 127.109 57.4914 127.889 56.0545 128.337C55.6445 128.474 55.1433 128.451 53.9133 131.777C52.0228 136.856 57.125 142.505 57.125 142.505C53.63 145.019 50.7744 148.32 48.7883 152.14C47.2846 155.808 46.6907 159.786 47.0572 163.734C47.0572 163.734 42.7295 167.492 42.5017 171.364C42.2425 174.074 42.8571 176.796 44.2556 179.132C44.3626 179.368 44.5166 179.58 44.7081 179.755C44.8997 179.93 45.1248 180.064 45.3698 180.149C45.6148 180.234 45.8746 180.269 46.1333 180.251C46.3921 180.232 46.6444 180.162 46.875 180.043C46.875 180.043 44.005 183.391 46.6928 184.826C49.3806 186.261 53.2756 186.853 55.4622 184.644C57.0567 183.049 57.3528 179.519 57.945 178.061C58.0817 177.719 58.56 178.63 59.0156 179.086C59.4344 179.457 59.884 179.793 60.3595 180.088C59.8474 180.293 59.3813 180.598 58.9885 180.985C58.5957 181.372 58.2841 181.834 58.072 182.343C57.8599 182.852 57.7515 183.398 57.7531 183.95C57.7548 184.501 57.8665 185.047 58.0817 185.555C58.6056 186.808 60.4733 187.628 63.5483 187.605C69.2275 187.391 74.8916 186.881 80.5178 186.079C81.5292 185.917 82.4499 185.4 83.1144 184.621C88.5219 183.009 93.6862 180.672 98.4667 177.674C101.569 175.359 105.123 173.721 108.899 172.868C109.666 172.677 110.326 172.19 110.734 171.513C111.142 170.836 111.264 170.025 111.074 169.257C110.884 168.49 110.397 167.83 109.72 167.422C109.042 167.014 108.231 166.892 107.464 167.082V167.082Z" fill="#2C8EBB"/>
<path d="M72.5 89C60.3365 89 48.4461 92.6069 38.3325 99.3646C28.2188 106.122 20.3362 115.727 15.6814 126.965C11.0266 138.203 9.80874 150.568 12.1817 162.498C14.5547 174.428 20.412 185.386 29.013 193.987C37.6139 202.588 48.5721 208.445 60.502 210.818C72.4318 213.191 84.7974 211.973 96.035 207.319C107.273 202.664 116.878 194.781 123.635 184.668C130.393 174.554 134 162.664 134 150.5C134 134.189 127.521 118.546 115.987 107.013C104.454 95.4794 88.8108 89 72.5 89ZM109.491 176.125C106.108 176.895 102.926 178.37 100.152 180.453C95.331 183.481 90.1408 185.877 84.7089 187.582C83.6633 188.441 82.4305 189.042 81.11 189.336C75.2236 190.215 69.2916 190.755 63.3433 190.953H63.1156C61.77 191.072 60.4146 190.908 59.1359 190.473C57.8573 190.038 56.6836 189.34 55.69 188.425C53.9461 189.144 52.0612 189.456 50.1786 189.338C48.296 189.219 46.4651 188.674 44.825 187.742C44.0719 187.364 43.4154 186.818 42.906 186.147C42.3966 185.476 42.0479 184.697 41.8867 183.869C41.7675 183.191 41.7675 182.498 41.8867 181.819C41.597 181.511 41.3377 181.175 41.1122 180.817C39.2992 177.823 38.5004 174.325 38.8345 170.841C39.3627 167.501 40.9615 164.423 43.39 162.071C43.2211 158.121 43.8806 154.18 45.3261 150.5C46.9445 147.079 49.2742 144.043 52.1595 141.594C51.0404 139.944 50.3076 138.064 50.0158 136.092C49.724 134.12 49.8806 132.108 50.4739 130.205C51.6356 127.107 52.5922 125.399 54.6878 124.67C55.598 124.407 56.4435 123.957 57.1706 123.349C60.2209 120.018 64.4398 117.994 68.9467 117.7C69.1289 117.222 69.3567 116.743 69.5845 116.242C70.4845 113.676 72.3468 111.561 74.7778 110.343C75.4946 110.076 76.2645 109.982 77.0246 110.069C77.7846 110.156 78.5133 110.421 79.1511 110.844C79.7889 111.277 80.6317 111.801 83.0233 116.766C83.941 116.467 84.9301 116.467 85.8478 116.766C86.3371 116.914 86.7912 117.16 87.1827 117.489C87.5742 117.818 87.895 118.223 88.1256 118.679C90.5628 123.372 90.9045 131.754 89.8339 137.152C88.8865 141.923 86.9124 146.431 84.0483 150.363C86.6205 152.993 88.594 156.148 89.8339 159.611C91.0175 162.915 91.4985 166.429 91.2461 169.929C92.3125 169.432 93.3471 168.869 94.3439 168.244C98.1832 165.485 102.705 163.831 107.418 163.461C109.058 163.377 110.669 163.91 111.934 164.956C113.199 166.002 114.026 167.484 114.252 169.109C114.471 170.661 114.105 172.239 113.225 173.536C112.345 174.833 111.014 175.756 109.491 176.125V176.125Z" fill="#2C8EBB"/>
</svg>
